<svg width="68" height="70" viewBox="0 0 68 70" fill="none" xmlns="http://www.w3.org/2000/svg">
<g filter="url(#filter0_dd_1731_16628)">
<rect x="2.5" y="0.5" width="63" height="63" rx="31.5" stroke="#6E8649"/>
<path fill-rule="evenodd" clip-rule="evenodd" d="M35.4167 24.8511C31.4066 28.7735 31.4065 35.2265 35.4167 39.1489L44.1714 47.7119C45.1747 48.6932 45.1747 50.3076 44.1714 51.2889C43.1991 52.24 41.645 52.24 40.6727 51.2889L22.7409 33.7498C22.2665 33.2857 22 32.6563 22 32C22 31.3437 22.2665 30.7143 22.7409 30.2502L40.6727 12.7111C41.645 11.76 43.1991 11.76 44.1714 12.7111C45.1747 13.6924 45.1747 15.3068 44.1714 16.2881L35.4167 24.8511Z" fill="#6E8649"/>
</g>
<defs>
<filter id="filter0_dd_1731_16628" x="0" y="0" width="68" height="70" filterUnits="userSpaceOnUse" color-interpolation-filters="sRGB">
<feFlood flood-opacity="0" result="BackgroundImageFix"/>
<feColorMatrix in="SourceAlpha" type="matrix" values="0 0 0 0 0 0 0 0 0 0 0 0 0 0 0 0 0 0 127 0" result="hardAlpha"/>
<feMorphology radius="2" operator="erode" in="SourceAlpha" result="effect1_dropShadow_1731_16628"/>
<feOffset dy="4"/>
<feGaussianBlur stdDeviation="2"/>
<feColorMatrix type="matrix" values="0 0 0 0 0.0941176 0 0 0 0 0.152941 0 0 0 0 0.294118 0 0 0 0.08 0"/>
<feBlend mode="normal" in2="BackgroundImageFix" result="effect1_dropShadow_1731_16628"/>
<feColorMatrix in="SourceAlpha" type="matrix" values="0 0 0 0 0 0 0 0 0 0 0 0 0 0 0 0 0 0 127 0" result="hardAlpha"/>
<feMorphology radius="2" operator="erode" in="SourceAlpha" result="effect2_dropShadow_1731_16628"/>
<feOffset dy="2"/>
<feGaussianBlur stdDeviation="2"/>
<feColorMatrix type="matrix" values="0 0 0 0 0.0941176 0 0 0 0 0.152941 0 0 0 0 0.294118 0 0 0 0.12 0"/>
<feBlend mode="normal" in2="effect1_dropShadow_1731_16628" result="effect2_dropShadow_1731_16628"/>
<feBlend mode="normal" in="SourceGraphic" in2="effect2_dropShadow_1731_16628" result="shape"/>
</filter>
</defs>
</svg>
