<svg width="96" height="96" viewBox="0 0 96 96" fill="none" xmlns="http://www.w3.org/2000/svg">
<rect x="0.5" y="0.5" width="95" height="95" rx="47.5" fill="white"/>
<rect x="0.5" y="0.5" width="95" height="95" rx="47.5" stroke="#A7B590"/>
<path d="M42.9401 61.4701H22.735C20.9488 61.4701 19.2357 60.7605 17.9726 59.4974C16.7096 58.2344 16 56.5213 16 54.735V27.7949C16 26.0087 16.7096 24.2956 17.9726 23.0325C19.2357 21.7695 20.9488 21.0599 22.735 21.0599H69.8803C71.6665 21.0599 73.3796 21.7695 74.6426 23.0325C75.9057 24.2956 76.6153 26.0087 76.6153 27.7949V37.8975" stroke="#A7B590" stroke-width="5" stroke-linecap="round" stroke-linejoin="round"/>
<path d="M26.1025 41.265H26.1362M36.2051 41.265C36.2051 43.9443 37.2695 46.514 39.1641 48.4086C41.0586 50.3031 43.6283 51.3675 46.3076 51.3675C48.987 51.3675 51.5566 50.3031 53.4512 48.4086C55.3458 46.514 56.4102 43.9443 56.4102 41.265C56.4102 38.5856 55.3458 36.016 53.4512 34.1214C51.5566 32.2268 48.987 31.1624 46.3076 31.1624C43.6283 31.1624 41.0586 32.2268 39.1641 34.1214C37.2695 36.016 36.2051 38.5856 36.2051 41.265ZM67.9271 53.4217C68.5838 52.765 69.3634 52.2441 70.2215 51.8887C71.0795 51.5332 71.9991 51.3503 72.9278 51.3503C73.8566 51.3503 74.7762 51.5332 75.6342 51.8887C76.4923 52.2441 77.2719 52.765 77.9286 53.4217C78.5853 54.0784 79.1062 54.858 79.4617 55.7161C79.8171 56.5741 80 57.4937 80 58.4225C80 59.3512 79.8171 60.2708 79.4617 61.1289C79.1062 61.9869 78.5853 62.7665 77.9286 63.4232L66.5127 74.9401H56.4102V64.8376L67.9271 53.4217Z" stroke="#A7B590" stroke-width="5" stroke-linecap="round" stroke-linejoin="round"/>
</svg>
