<svg width="96" height="96" viewBox="0 0 96 96" fill="none" xmlns="http://www.w3.org/2000/svg">
<rect x="0.5" y="0.5" width="95" height="95" rx="47.5" fill="white"/>
<rect x="0.5" y="0.5" width="95" height="95" rx="47.5" stroke="#A7B590"/>
<path d="M51.8621 45.2959C52.7356 45.6426 53.5862 46.0239 54.4138 46.4399C55.2414 46.856 56.046 47.3298 56.8276 47.8613C56.3218 48.416 55.8621 48.9938 55.4483 49.5947C55.0345 50.1956 54.6552 50.8428 54.3103 51.5361C52.5402 50.3805 50.6552 49.5023 48.6552 48.9014C46.6552 48.3005 44.5977 48 42.4828 48C40.4598 48 38.5057 48.2658 36.6207 48.7974C34.7356 49.3289 32.977 50.0685 31.3448 51.0161C29.7126 51.9637 28.2299 53.1193 26.8966 54.4829C25.5632 55.8465 24.4138 57.3488 23.4483 58.9897C22.4828 60.6307 21.7356 62.3988 21.2069 64.2939C20.6782 66.1891 20.4138 68.1536 20.4138 70.1875H16C16 67.4141 16.4023 64.7446 17.2069 62.1792C18.0115 59.6138 19.1724 57.2448 20.6897 55.0723C22.2069 52.8997 24 50.9699 26.069 49.2827C28.1379 47.5955 30.4828 46.2666 33.1034 45.2959C30.5057 43.5856 28.4828 41.4362 27.0345 38.8477C25.5862 36.2591 24.8506 33.3932 24.8276 30.25C24.8276 27.8001 25.2874 25.5005 26.2069 23.3511C27.1264 21.2017 28.3793 19.318 29.9655 17.7002C31.5517 16.0824 33.4253 14.8112 35.5862 13.8867C37.7471 12.9622 40.046 12.5 42.4828 12.5C44.9195 12.5 47.2069 12.9622 49.3448 13.8867C51.4828 14.8112 53.3563 16.0708 54.9655 17.6655C56.5747 19.2603 57.8391 21.1439 58.7586 23.3164C59.6782 25.4889 60.1379 27.8001 60.1379 30.25C60.1379 31.7754 59.954 33.2661 59.5862 34.7222C59.2184 36.1782 58.6667 37.5534 57.931 38.8477C57.1954 40.1419 56.3333 41.3322 55.3448 42.4185C54.3563 43.5047 53.1954 44.4639 51.8621 45.2959ZM29.2414 30.25C29.2414 32.099 29.5862 33.8208 30.2759 35.4155C30.9655 37.0103 31.908 38.4201 33.1034 39.645C34.2989 40.87 35.7011 41.8291 37.3103 42.5225C38.9195 43.2158 40.6437 43.5625 42.4828 43.5625C44.2989 43.5625 46.0115 43.2158 47.6207 42.5225C49.2299 41.8291 50.6322 40.8815 51.8276 39.6797C53.023 38.4779 53.977 37.068 54.6897 35.4502C55.4023 33.8324 55.7471 32.099 55.7241 30.25C55.7241 28.4242 55.3793 26.7023 54.6897 25.0845C54 23.4666 53.0575 22.0568 51.8621 20.855C50.6667 19.6532 49.2529 18.694 47.6207 17.9775C45.9885 17.2611 44.2759 16.9144 42.4828 16.9375C40.6437 16.9375 38.931 17.2842 37.3448 17.9775C35.7586 18.6709 34.3563 19.6185 33.1379 20.8203C31.9195 22.0221 30.9655 23.4435 30.2759 25.0845C29.5862 26.7254 29.2414 28.4473 29.2414 30.25ZM80 59.0938C80 60.2956 79.8161 61.4627 79.4483 62.5952C79.0805 63.7277 78.5287 64.7793 77.7931 65.75V83.5L68.9655 79.0625L60.1379 83.5V65.75C59.4253 64.7793 58.8851 63.7277 58.5172 62.5952C58.1494 61.4627 57.954 60.2956 57.931 59.0938C57.931 57.5684 58.2184 56.1354 58.7931 54.7949C59.3678 53.4544 60.1494 52.2873 61.1379 51.2935C62.1264 50.2996 63.2989 49.5023 64.6552 48.9014C66.0115 48.3005 67.4483 48 68.9655 48C70.4828 48 71.908 48.2889 73.2414 48.8667C74.5747 49.4445 75.7356 50.2419 76.7241 51.2588C77.7126 52.2757 78.5057 53.4544 79.1034 54.7949C79.7011 56.1354 80 57.5684 80 59.0938ZM68.9655 52.4375C68.046 52.4375 67.1839 52.6108 66.3793 52.9575C65.5747 53.3042 64.8736 53.778 64.2759 54.3789C63.6782 54.9798 63.2069 55.6847 62.8621 56.4937C62.5172 57.3026 62.3448 58.1693 62.3448 59.0938C62.3448 60.0182 62.5172 60.8849 62.8621 61.6938C63.2069 62.5028 63.6782 63.2077 64.2759 63.8086C64.8736 64.4095 65.5747 64.8833 66.3793 65.23C67.1839 65.5767 68.046 65.75 68.9655 65.75C69.8851 65.75 70.7471 65.5767 71.5517 65.23C72.3563 64.8833 73.0575 64.4095 73.6552 63.8086C74.2529 63.2077 74.7241 62.5028 75.069 61.6938C75.4138 60.8849 75.5862 60.0182 75.5862 59.0938C75.5862 58.1693 75.4138 57.3026 75.069 56.4937C74.7241 55.6847 74.2529 54.9798 73.6552 54.3789C73.0575 53.778 72.3563 53.3042 71.5517 52.9575C70.7471 52.6108 69.8851 52.4375 68.9655 52.4375ZM73.3793 76.3237V69.2515C72 69.8755 70.5287 70.1875 68.9655 70.1875C67.4023 70.1875 65.931 69.8755 64.5517 69.2515V76.3237C65.2874 75.9539 66.023 75.5957 66.7586 75.249C67.4943 74.9023 68.2299 74.521 68.9655 74.105C69.7011 74.4979 70.4368 74.8677 71.1724 75.2144C71.908 75.561 72.6437 75.9308 73.3793 76.3237Z" fill="#A7B590"/>
</svg>
