<svg width="96" height="96" viewBox="0 0 96 96" fill="none" xmlns="http://www.w3.org/2000/svg">
<rect width="96" height="96" rx="48" fill="white"/>
<path d="M67.1338 34.6608L68.6934 33.0978C69.9352 31.8556 71.6196 31.1575 73.3761 31.1572C75.1326 31.1569 76.8172 31.8544 78.0595 33.0962C79.3017 34.338 79.9998 36.0224 80.0001 37.7789C80.0004 39.5353 79.303 41.22 78.0612 42.4622L76.5015 44.0252M67.1338 34.6608C67.1338 34.6608 67.3291 37.9754 70.2564 40.9026C73.1836 43.8299 76.5015 44.0252 76.5015 44.0252M67.1338 34.6608L52.784 49.0106C51.8071 49.9807 51.322 50.4692 50.9043 51.0047C50.4103 51.638 49.9904 52.3185 49.6445 53.046C49.3515 53.6591 49.1359 54.3092 48.7013 55.6128L47.3102 59.7898L46.8588 61.1405M76.5015 44.0252L62.1517 58.375C61.1749 59.3519 60.6898 59.8369 60.1542 60.2546C59.521 60.7487 58.8405 61.1686 58.1129 61.5144C57.4999 61.8075 56.8497 62.0231 55.5461 62.4576L51.3692 63.8488L50.0184 64.3002M46.8588 61.1405L46.4108 62.4947C46.3064 62.809 46.2915 63.1461 46.3678 63.4684C46.4441 63.7907 46.6085 64.0854 46.8427 64.3196C47.0769 64.5538 47.3716 64.7182 47.6939 64.7945C48.0162 64.8708 48.3533 64.8559 48.6677 64.7515L50.0184 64.3002M46.8588 61.1405L50.0184 64.3002" stroke="#A7B590" stroke-width="5"/>
<path d="M32.8425 51.3685H41.2637M32.8425 37.8945H54.7377M32.8425 64.8424H37.8952M72.6851 18.263C68.7405 14.3151 62.3876 14.3151 49.685 14.3151H42.948C30.2454 14.3151 23.8924 14.3151 19.9479 18.263C16.0034 22.2108 16 28.5604 16 41.263V54.737C16 67.4396 16 73.7925 19.9479 77.737C23.8958 81.6815 30.2454 81.6849 42.948 81.6849H49.685C62.3876 81.6849 68.7405 81.6849 72.6851 77.737C75.8649 74.5605 76.4814 69.8278 76.6026 61.474" stroke="#A7B590" stroke-width="5" stroke-linecap="round"/>
</svg>
