<svg width="96" height="96" viewBox="0 0 96 96" fill="none" xmlns="http://www.w3.org/2000/svg">
<rect x="0.5" y="0.5" width="95" height="95" rx="47.5" fill="white"/>
<rect x="0.5" y="0.5" width="95" height="95" rx="47.5" stroke="#A7B590"/>
<path d="M64.6581 53.4945C62.794 53.4945 61.1912 52.8245 59.85 51.4845C58.5087 50.1444 57.838 48.5459 57.838 46.6889C57.838 44.8319 58.5087 43.2334 59.85 41.8934C61.1912 40.5533 62.794 39.8844 64.6581 39.8867C66.52 39.8867 68.1228 40.5556 69.4663 41.8934C70.8076 43.2334 71.4783 44.8319 71.4783 46.6889C71.4783 48.5482 70.8076 50.1467 69.4663 51.4845C68.1228 52.8222 66.52 53.4911 64.6581 53.4911M49.3129 70.4966V67.4356C49.3129 66.3813 49.5766 65.4256 50.104 64.5685C50.6314 63.7091 51.3816 63.0913 52.3546 62.7149C54.2756 61.9077 56.2626 61.3023 58.3154 60.8987C60.3706 60.4974 62.4848 60.2967 64.6581 60.2967C66.7405 60.2967 68.8105 60.4974 70.8679 60.8987C72.9253 61.3023 74.9554 61.9077 76.9582 62.7149C77.9312 63.0913 78.6814 63.7091 79.2089 64.5685C79.7363 65.4256 80 66.3824 80 67.439V70.5L49.3129 70.4966ZM39.867 45.9067C37.0548 45.9067 34.6473 44.9067 32.6445 42.9069C30.6417 40.907 29.6402 38.5059 29.6402 35.7034C29.6402 32.9009 30.6405 30.4974 32.6411 28.493C34.6417 26.4886 37.0514 25.491 39.8704 25.5001C42.6894 25.5091 45.0969 26.5068 47.0929 28.493C49.0889 30.4793 50.0915 32.8827 50.1006 35.7034C50.1097 38.524 49.1071 40.9252 47.0929 42.9069C45.0787 44.8886 42.6712 45.8885 39.8704 45.9067M16 70.4966V64.9018C16 63.4325 16.4058 62.0811 17.2174 60.8477C18.0313 59.6142 19.1373 58.7027 20.5354 58.1132C23.5521 56.5872 26.6849 55.4365 29.9335 54.6611C33.1822 53.8856 36.4945 53.4979 39.8704 53.4979C41.2458 53.4979 42.6223 53.5693 44 53.7122C45.3777 53.855 46.7553 54.0444 48.133 54.2802L46.6769 55.7971L45.2208 57.3173C44.3274 57.1428 43.4351 57.0294 42.5439 56.9772C41.6527 56.9251 40.7616 56.899 39.8704 56.899C36.7923 56.899 33.7516 57.23 30.7485 57.8921C27.7454 58.5542 24.8832 59.6222 22.162 61.096C21.4186 61.5109 20.7741 62.0279 20.2285 62.6469C19.6829 63.2659 19.4101 64.0175 19.4101 64.9018V67.0989H39.8704V70.5L16 70.4966ZM39.8704 42.5056C41.7459 42.5056 43.3509 41.8389 44.6854 40.5057C46.0199 39.1725 46.6883 37.5717 46.6905 35.7034C46.6928 33.835 46.0244 32.2331 44.6854 30.8976C43.3464 29.5621 41.7414 28.8966 39.8704 28.9012C37.9994 28.9057 36.3933 29.5712 35.052 30.8976C33.7107 32.224 33.0435 33.826 33.0503 35.7034C33.0571 37.5808 33.7244 39.1815 35.052 40.5057C36.3797 41.8299 37.9858 42.4965 39.8704 42.5056Z" fill="#A7B590"/>
</svg>
