<svg width="72" height="65" viewBox="0 0 72 65" fill="none" xmlns="http://www.w3.org/2000/svg">
<path d="M36.0008 7.32548C38.0556 7.32548 40.0994 8.6221 41.656 11.2153L63.3102 47.308C66.4271 52.4908 64.0207 56.7322 57.9772 56.7322H14.0243C7.98078 56.7322 5.57436 52.4871 8.69135 47.308L30.3455 11.2153C31.9021 8.6221 33.946 7.32548 36.0008 7.32548ZM36.0008 0C31.2538 0 26.9098 2.71043 24.0639 7.43903L2.40975 43.539C-0.469163 48.3335 -0.784158 53.4467 1.54901 57.5673C3.88217 61.6879 8.4313 64.0577 14.0243 64.0577H57.9772C63.5702 64.0577 68.123 61.6916 70.4525 57.571C72.782 53.4504 72.4707 48.3372 69.5918 43.5427L47.9376 7.45002C45.0917 2.71043 40.7477 0 36.0008 0Z" fill="#DD1122"/>
<path d="M36.0003 50.5054C38.6301 50.5054 40.7619 48.3736 40.7619 45.7439C40.7619 43.1141 38.6301 40.9823 36.0003 40.9823C33.3706 40.9823 31.2388 43.1141 31.2388 45.7439C31.2388 48.3736 33.3706 50.5054 36.0003 50.5054Z" fill="#DD1122"/>
<path d="M41.4946 23.7667C41.4946 20.7266 39.0369 18.2726 36.0004 18.2726C35.1015 18.2736 34.2165 18.4952 33.4232 18.918C32.6298 19.3407 31.9523 19.9516 31.4501 20.6972C30.9479 21.4428 30.6363 22.3002 30.5426 23.1943C30.4489 24.0883 30.5761 24.9917 30.9129 25.8252C32.9421 30.8651 36.0004 38.4177 36.0004 38.4177L41.0953 25.8252C41.3444 25.1915 41.4946 24.4956 41.4946 23.7667Z" fill="#DD1122"/>
</svg>
