<svg width="72" height="72" viewBox="0 0 72 72" fill="none" xmlns="http://www.w3.org/2000/svg">
<path d="M53.1003 29.1002C53.6467 28.5344 53.9491 27.7766 53.9423 26.99C53.9354 26.2035 53.6199 25.451 53.0637 24.8948C52.5075 24.3386 51.7551 24.0231 50.9685 24.0162C50.1819 24.0094 49.4241 24.3118 48.8583 24.8582L32.9583 40.7582L23.0583 30.8582C22.4925 30.3118 21.7346 30.0094 20.9481 30.0162C20.1615 30.0231 19.409 30.3386 18.8528 30.8948C18.2966 31.451 17.9811 32.2035 17.9742 32.99C17.9674 33.7766 18.2698 34.5344 18.8163 35.1002L30.8163 47.1002C31.3788 47.6627 32.1418 47.9786 32.9373 47.9786C33.7327 47.9786 34.4957 47.6627 35.0583 47.1002L53.0583 29.1002H53.1003Z" fill="#BCDC7F"/>
<path fill-rule="evenodd" clip-rule="evenodd" d="M72 36C72 55.86 55.86 72 36 72C16.14 72 0 55.86 0 36C0 16.14 16.14 0 36 0C55.86 0 72 16.14 72 36ZM66 36C66 52.56 52.56 66 36 66C19.44 66 6 52.56 6 36C6 19.44 19.44 6 36 6C52.56 6 66 19.44 66 36Z" fill="#BCDC7F"/>
</svg>
