<svg width="79" height="79" viewBox="0 0 79 79" fill="none" xmlns="http://www.w3.org/2000/svg">
<path d="M39.5 22.008V44.008M39.5 56.992V54.992M22.72 5.376C24.14 3.96 25.304 3.5 27.248 3.5H51.752C53.696 3.5 54.864 3.96 56.28 5.376L73.624 22.72C75.04 24.136 75.5 25.304 75.5 27.248V51.752C75.5 53.752 75 54.904 73.624 56.28L56.28 73.624C54.864 75.04 53.696 75.5 51.752 75.5H27.248C25.248 75.5 24.096 75 22.72 73.624L5.38 56.28C3.96 54.86 3.5 53.696 3.5 51.752V27.248C3.5 25.248 4 24.096 5.376 22.72L22.72 5.376Z" stroke="#FFF36E" stroke-width="7" stroke-linecap="round" stroke-linejoin="round"/>
</svg>
